<mxfile host="app.diagrams.net" modified="2024-06-11T14:59:53.587Z" agent="Mozilla/5.0 (Windows NT 10.0; Win64; x64) AppleWebKit/537.36 (KHTML, like Gecko) Chrome/125.0.0.0 Safari/537.36" etag="BxtYrhiovqv1_Z3U2HrL" version="24.5.2" type="device">
  <diagram name="Page-1" id="tuqlf_5fMsfbB7A1272M">
    <mxGraphModel dx="1434" dy="772" grid="1" gridSize="10" guides="1" tooltips="1" connect="1" arrows="0" fold="1" page="1" pageScale="1" pageWidth="827" pageHeight="1169" background="none" math="0" shadow="0">
      <root>
        <mxCell id="0" />
        <mxCell id="1" parent="0" />
        <mxCell id="v77sr_TwMKpnWCsUWmL0-36" style="edgeStyle=orthogonalEdgeStyle;rounded=0;orthogonalLoop=1;jettySize=auto;html=1;exitX=1;exitY=0.5;exitDx=0;exitDy=0;entryX=0;entryY=0.5;entryDx=0;entryDy=0;endArrow=none;endFill=0;fillColor=#dae8fc;strokeColor=#6c8ebf;" edge="1" parent="1" source="v77sr_TwMKpnWCsUWmL0-1" target="v77sr_TwMKpnWCsUWmL0-17">
          <mxGeometry relative="1" as="geometry" />
        </mxCell>
        <mxCell id="v77sr_TwMKpnWCsUWmL0-65" style="edgeStyle=orthogonalEdgeStyle;rounded=0;orthogonalLoop=1;jettySize=auto;html=1;exitX=0.5;exitY=1;exitDx=0;exitDy=0;endArrow=none;endFill=0;fillColor=#f8cecc;strokeColor=#b85450;" edge="1" parent="1" source="v77sr_TwMKpnWCsUWmL0-1" target="v77sr_TwMKpnWCsUWmL0-44">
          <mxGeometry relative="1" as="geometry" />
        </mxCell>
        <mxCell id="v77sr_TwMKpnWCsUWmL0-1" value="&lt;font style=&quot;font-size: 11px;&quot;&gt;Does the company disclose S3 emissions?&lt;/font&gt;" style="whiteSpace=wrap;html=1;strokeWidth=2;strokeColor=#5c677d;" vertex="1" parent="1">
          <mxGeometry x="20" y="40" width="120" height="60" as="geometry" />
        </mxCell>
        <mxCell id="v77sr_TwMKpnWCsUWmL0-40" style="edgeStyle=orthogonalEdgeStyle;rounded=0;orthogonalLoop=1;jettySize=auto;html=1;exitX=1;exitY=0.5;exitDx=0;exitDy=0;entryX=0;entryY=0.5;entryDx=0;entryDy=0;endArrow=none;endFill=0;fillColor=#dae8fc;strokeColor=#6c8ebf;" edge="1" parent="1" source="v77sr_TwMKpnWCsUWmL0-2" target="v77sr_TwMKpnWCsUWmL0-24">
          <mxGeometry relative="1" as="geometry" />
        </mxCell>
        <mxCell id="v77sr_TwMKpnWCsUWmL0-67" style="edgeStyle=orthogonalEdgeStyle;rounded=0;orthogonalLoop=1;jettySize=auto;html=1;exitX=0.5;exitY=1;exitDx=0;exitDy=0;entryX=0.5;entryY=0;entryDx=0;entryDy=0;endArrow=none;endFill=0;fillColor=#f8cecc;strokeColor=#b85450;" edge="1" parent="1" source="v77sr_TwMKpnWCsUWmL0-2" target="v77sr_TwMKpnWCsUWmL0-18">
          <mxGeometry relative="1" as="geometry" />
        </mxCell>
        <mxCell id="v77sr_TwMKpnWCsUWmL0-2" value="&lt;font style=&quot;font-size: 11px;&quot;&gt;Does the disclosure meet materiality standards?&lt;/font&gt;" style="whiteSpace=wrap;html=1;strokeColor=#5C677D;strokeWidth=2;" vertex="1" parent="1">
          <mxGeometry x="140" y="110" width="120" height="60" as="geometry" />
        </mxCell>
        <mxCell id="v77sr_TwMKpnWCsUWmL0-48" style="edgeStyle=orthogonalEdgeStyle;rounded=0;orthogonalLoop=1;jettySize=auto;html=1;exitX=0.5;exitY=1;exitDx=0;exitDy=0;entryX=0.5;entryY=0;entryDx=0;entryDy=0;endArrow=none;endFill=0;fillColor=#f8cecc;strokeColor=#b85450;" edge="1" parent="1" source="v77sr_TwMKpnWCsUWmL0-3" target="v77sr_TwMKpnWCsUWmL0-47">
          <mxGeometry relative="1" as="geometry" />
        </mxCell>
        <mxCell id="v77sr_TwMKpnWCsUWmL0-50" style="edgeStyle=orthogonalEdgeStyle;rounded=0;orthogonalLoop=1;jettySize=auto;html=1;exitX=1;exitY=0.5;exitDx=0;exitDy=0;entryX=0.5;entryY=1;entryDx=0;entryDy=0;endArrow=none;endFill=0;fillColor=#dae8fc;strokeColor=#6c8ebf;" edge="1" parent="1" source="v77sr_TwMKpnWCsUWmL0-3" target="v77sr_TwMKpnWCsUWmL0-23">
          <mxGeometry relative="1" as="geometry" />
        </mxCell>
        <mxCell id="v77sr_TwMKpnWCsUWmL0-3" value="&lt;font style=&quot;font-size: 11px;&quot;&gt;Does the disclosure meet quality standards?&lt;/font&gt;" style="whiteSpace=wrap;html=1;strokeWidth=2;strokeColor=#5C677D;" vertex="1" parent="1">
          <mxGeometry x="260" y="180" width="120" height="60" as="geometry" />
        </mxCell>
        <mxCell id="v77sr_TwMKpnWCsUWmL0-5" style="edgeStyle=orthogonalEdgeStyle;rounded=0;orthogonalLoop=1;jettySize=auto;html=1;exitX=0.5;exitY=1;exitDx=0;exitDy=0;" edge="1" parent="1" source="v77sr_TwMKpnWCsUWmL0-2" target="v77sr_TwMKpnWCsUWmL0-2">
          <mxGeometry relative="1" as="geometry" />
        </mxCell>
        <mxCell id="v77sr_TwMKpnWCsUWmL0-57" style="edgeStyle=orthogonalEdgeStyle;rounded=0;orthogonalLoop=1;jettySize=auto;html=1;exitX=1;exitY=0.5;exitDx=0;exitDy=0;entryX=0;entryY=0.5;entryDx=0;entryDy=0;endArrow=none;endFill=0;fillColor=#dae8fc;strokeColor=#6c8ebf;" edge="1" parent="1" source="v77sr_TwMKpnWCsUWmL0-6" target="v77sr_TwMKpnWCsUWmL0-20">
          <mxGeometry relative="1" as="geometry" />
        </mxCell>
        <mxCell id="v77sr_TwMKpnWCsUWmL0-63" style="edgeStyle=orthogonalEdgeStyle;rounded=0;orthogonalLoop=1;jettySize=auto;html=1;exitX=0.5;exitY=1;exitDx=0;exitDy=0;entryX=0;entryY=0.5;entryDx=0;entryDy=0;endArrow=none;endFill=0;fillColor=#f8cecc;strokeColor=#b85450;" edge="1" parent="1" source="v77sr_TwMKpnWCsUWmL0-6" target="v77sr_TwMKpnWCsUWmL0-43">
          <mxGeometry relative="1" as="geometry" />
        </mxCell>
        <mxCell id="v77sr_TwMKpnWCsUWmL0-6" value="&lt;font style=&quot;font-size: 11px;&quot;&gt;Can the specialised models be applied?&lt;/font&gt;" style="whiteSpace=wrap;html=1;strokeColor=#5C677D;strokeWidth=2;" vertex="1" parent="1">
          <mxGeometry x="30" y="400" width="120" height="60" as="geometry" />
        </mxCell>
        <mxCell id="v77sr_TwMKpnWCsUWmL0-49" style="edgeStyle=orthogonalEdgeStyle;rounded=0;orthogonalLoop=1;jettySize=auto;html=1;exitX=0.5;exitY=0;exitDx=0;exitDy=0;entryX=0.5;entryY=1;entryDx=0;entryDy=0;endArrow=none;endFill=0;fillColor=#f8cecc;strokeColor=#b85450;" edge="1" parent="1" source="v77sr_TwMKpnWCsUWmL0-7" target="v77sr_TwMKpnWCsUWmL0-47">
          <mxGeometry relative="1" as="geometry" />
        </mxCell>
        <mxCell id="v77sr_TwMKpnWCsUWmL0-54" style="edgeStyle=orthogonalEdgeStyle;rounded=0;orthogonalLoop=1;jettySize=auto;html=1;exitX=1;exitY=0.5;exitDx=0;exitDy=0;entryX=0.5;entryY=1;entryDx=0;entryDy=0;endArrow=none;endFill=0;fillColor=#dae8fc;strokeColor=#6c8ebf;" edge="1" parent="1" source="v77sr_TwMKpnWCsUWmL0-7" target="v77sr_TwMKpnWCsUWmL0-22">
          <mxGeometry relative="1" as="geometry" />
        </mxCell>
        <mxCell id="v77sr_TwMKpnWCsUWmL0-61" style="edgeStyle=orthogonalEdgeStyle;rounded=0;orthogonalLoop=1;jettySize=auto;html=1;exitX=0.5;exitY=1;exitDx=0;exitDy=0;endArrow=none;endFill=0;fillColor=#f8cecc;strokeColor=#b85450;" edge="1" parent="1" source="v77sr_TwMKpnWCsUWmL0-7" target="v77sr_TwMKpnWCsUWmL0-46">
          <mxGeometry relative="1" as="geometry" />
        </mxCell>
        <mxCell id="v77sr_TwMKpnWCsUWmL0-7" value="&lt;font style=&quot;font-size: 11px;&quot;&gt;Available for one of the two previous years?&lt;/font&gt;" style="whiteSpace=wrap;html=1;strokeWidth=2;strokeColor=#5C677D;" vertex="1" parent="1">
          <mxGeometry x="260" y="300" width="120" height="60" as="geometry" />
        </mxCell>
        <mxCell id="v77sr_TwMKpnWCsUWmL0-10" value="&lt;font style=&quot;font-size: 11px;&quot;&gt;REPORTED DATA&lt;/font&gt;" style="whiteSpace=wrap;html=1;strokeWidth=3;strokeColor=#0466c8;" vertex="1" parent="1">
          <mxGeometry x="520" y="40" width="130" height="40" as="geometry" />
        </mxCell>
        <mxCell id="v77sr_TwMKpnWCsUWmL0-11" value="&lt;font style=&quot;font-size: 11px;&quot;&gt;EXTRAPOLATED DATA&lt;/font&gt;" style="whiteSpace=wrap;html=1;strokeWidth=3;strokeColor=#0353a4;" vertex="1" parent="1">
          <mxGeometry x="520" y="140" width="130" height="40" as="geometry" />
        </mxCell>
        <mxCell id="v77sr_TwMKpnWCsUWmL0-12" value="&lt;font style=&quot;font-size: 11px;&quot;&gt;SPECIALISED MODEL&lt;/font&gt;" style="whiteSpace=wrap;html=1;strokeColor=#001845;strokeWidth=3;" vertex="1" parent="1">
          <mxGeometry x="520" y="240" width="130" height="40" as="geometry" />
        </mxCell>
        <mxCell id="v77sr_TwMKpnWCsUWmL0-13" value="&lt;font style=&quot;font-size: 11px;&quot;&gt;WINSORIZED DATA&lt;/font&gt;" style="whiteSpace=wrap;html=1;strokeWidth=3;strokeColor=#002855;" vertex="1" parent="1">
          <mxGeometry x="520" y="340" width="130" height="40" as="geometry" />
        </mxCell>
        <mxCell id="v77sr_TwMKpnWCsUWmL0-14" value="&lt;font style=&quot;font-size: 11px;&quot;&gt;GENERALISED MODEL&lt;/font&gt;" style="whiteSpace=wrap;html=1;strokeWidth=3;strokeColor=#023E7D;" vertex="1" parent="1">
          <mxGeometry x="520" y="440" width="130" height="40" as="geometry" />
        </mxCell>
        <mxCell id="v77sr_TwMKpnWCsUWmL0-38" style="edgeStyle=orthogonalEdgeStyle;rounded=0;orthogonalLoop=1;jettySize=auto;html=1;exitX=0.5;exitY=1;exitDx=0;exitDy=0;entryX=0.5;entryY=0;entryDx=0;entryDy=0;endArrow=none;endFill=0;fillColor=#dae8fc;strokeColor=#6c8ebf;" edge="1" parent="1" source="v77sr_TwMKpnWCsUWmL0-17" target="v77sr_TwMKpnWCsUWmL0-2">
          <mxGeometry relative="1" as="geometry" />
        </mxCell>
        <mxCell id="v77sr_TwMKpnWCsUWmL0-17" value="&lt;font style=&quot;font-size: 11px;&quot;&gt;Yes&lt;/font&gt;" style="ellipse;whiteSpace=wrap;html=1;fillColor=#dae8fc;strokeColor=#6c8ebf;" vertex="1" parent="1">
          <mxGeometry x="180" y="50" width="40" height="40" as="geometry" />
        </mxCell>
        <mxCell id="v77sr_TwMKpnWCsUWmL0-68" style="edgeStyle=orthogonalEdgeStyle;rounded=0;orthogonalLoop=1;jettySize=auto;html=1;exitX=0.5;exitY=1;exitDx=0;exitDy=0;entryX=0.75;entryY=0;entryDx=0;entryDy=0;endArrow=none;endFill=0;fillColor=#f8cecc;strokeColor=#b85450;" edge="1" parent="1" source="v77sr_TwMKpnWCsUWmL0-18" target="v77sr_TwMKpnWCsUWmL0-6">
          <mxGeometry relative="1" as="geometry" />
        </mxCell>
        <mxCell id="v77sr_TwMKpnWCsUWmL0-18" value="&lt;font style=&quot;font-size: 11px;&quot;&gt;No&lt;/font&gt;" style="ellipse;whiteSpace=wrap;html=1;fillColor=#f8cecc;strokeColor=#b85450;" vertex="1" parent="1">
          <mxGeometry x="180" y="250" width="40" height="40" as="geometry" />
        </mxCell>
        <mxCell id="v77sr_TwMKpnWCsUWmL0-58" style="edgeStyle=orthogonalEdgeStyle;rounded=0;orthogonalLoop=1;jettySize=auto;html=1;exitX=1;exitY=0.5;exitDx=0;exitDy=0;entryX=0;entryY=0.5;entryDx=0;entryDy=0;endArrow=none;endFill=0;fillColor=#dae8fc;strokeColor=#6c8ebf;" edge="1" parent="1" source="v77sr_TwMKpnWCsUWmL0-20" target="v77sr_TwMKpnWCsUWmL0-12">
          <mxGeometry relative="1" as="geometry">
            <Array as="points">
              <mxPoint x="500" y="430" />
              <mxPoint x="500" y="260" />
            </Array>
          </mxGeometry>
        </mxCell>
        <mxCell id="v77sr_TwMKpnWCsUWmL0-20" value="&lt;font style=&quot;font-size: 11px;&quot;&gt;Yes&lt;/font&gt;" style="ellipse;whiteSpace=wrap;html=1;fillColor=#dae8fc;strokeColor=#6c8ebf;" vertex="1" parent="1">
          <mxGeometry x="300" y="410" width="40" height="40" as="geometry" />
        </mxCell>
        <mxCell id="v77sr_TwMKpnWCsUWmL0-55" style="edgeStyle=orthogonalEdgeStyle;rounded=0;orthogonalLoop=1;jettySize=auto;html=1;exitX=0.5;exitY=0;exitDx=0;exitDy=0;entryX=0;entryY=0.5;entryDx=0;entryDy=0;endArrow=none;endFill=0;fillColor=#dae8fc;strokeColor=#6c8ebf;" edge="1" parent="1" source="v77sr_TwMKpnWCsUWmL0-22" target="v77sr_TwMKpnWCsUWmL0-11">
          <mxGeometry relative="1" as="geometry" />
        </mxCell>
        <mxCell id="v77sr_TwMKpnWCsUWmL0-22" value="&lt;font style=&quot;font-size: 11px;&quot;&gt;Yes&lt;/font&gt;" style="ellipse;whiteSpace=wrap;html=1;fillColor=#dae8fc;strokeColor=#6c8ebf;" vertex="1" parent="1">
          <mxGeometry x="430" y="240" width="40" height="40" as="geometry" />
        </mxCell>
        <mxCell id="v77sr_TwMKpnWCsUWmL0-51" style="edgeStyle=orthogonalEdgeStyle;rounded=0;orthogonalLoop=1;jettySize=auto;html=1;exitX=0.5;exitY=0;exitDx=0;exitDy=0;entryX=0;entryY=0.5;entryDx=0;entryDy=0;endArrow=none;endFill=0;fillColor=#dae8fc;strokeColor=#6c8ebf;" edge="1" parent="1" source="v77sr_TwMKpnWCsUWmL0-23" target="v77sr_TwMKpnWCsUWmL0-10">
          <mxGeometry relative="1" as="geometry" />
        </mxCell>
        <mxCell id="v77sr_TwMKpnWCsUWmL0-23" value="&lt;font style=&quot;font-size: 11px;&quot;&gt;Yes&lt;/font&gt;" style="ellipse;whiteSpace=wrap;html=1;fillColor=#dae8fc;strokeColor=#6c8ebf;" vertex="1" parent="1">
          <mxGeometry x="414" y="90" width="40" height="40" as="geometry" />
        </mxCell>
        <mxCell id="v77sr_TwMKpnWCsUWmL0-41" style="edgeStyle=orthogonalEdgeStyle;rounded=0;orthogonalLoop=1;jettySize=auto;html=1;exitX=0.5;exitY=1;exitDx=0;exitDy=0;entryX=0.5;entryY=0;entryDx=0;entryDy=0;fillColor=#dae8fc;strokeColor=#6c8ebf;endArrow=none;endFill=0;" edge="1" parent="1" source="v77sr_TwMKpnWCsUWmL0-24" target="v77sr_TwMKpnWCsUWmL0-3">
          <mxGeometry relative="1" as="geometry" />
        </mxCell>
        <mxCell id="v77sr_TwMKpnWCsUWmL0-24" value="&lt;font style=&quot;font-size: 11px;&quot;&gt;Yes&lt;/font&gt;" style="ellipse;whiteSpace=wrap;html=1;fillColor=#dae8fc;strokeColor=#6c8ebf;" vertex="1" parent="1">
          <mxGeometry x="300" y="120" width="40" height="40" as="geometry" />
        </mxCell>
        <mxCell id="v77sr_TwMKpnWCsUWmL0-64" style="edgeStyle=orthogonalEdgeStyle;rounded=0;orthogonalLoop=1;jettySize=auto;html=1;exitX=1;exitY=0.5;exitDx=0;exitDy=0;entryX=0;entryY=0.5;entryDx=0;entryDy=0;endArrow=none;endFill=0;fillColor=#f8cecc;strokeColor=#b85450;" edge="1" parent="1" source="v77sr_TwMKpnWCsUWmL0-43" target="v77sr_TwMKpnWCsUWmL0-14">
          <mxGeometry relative="1" as="geometry" />
        </mxCell>
        <mxCell id="v77sr_TwMKpnWCsUWmL0-43" value="&lt;font style=&quot;font-size: 11px;&quot;&gt;No&lt;/font&gt;" style="ellipse;whiteSpace=wrap;html=1;fillColor=#f8cecc;strokeColor=#b85450;" vertex="1" parent="1">
          <mxGeometry x="300" y="470" width="40" height="40" as="geometry" />
        </mxCell>
        <mxCell id="v77sr_TwMKpnWCsUWmL0-44" value="&lt;font style=&quot;font-size: 11px;&quot;&gt;No&lt;/font&gt;" style="ellipse;whiteSpace=wrap;html=1;fillColor=#f8cecc;strokeColor=#b85450;" vertex="1" parent="1">
          <mxGeometry x="60" y="250" width="40" height="40" as="geometry" />
        </mxCell>
        <mxCell id="v77sr_TwMKpnWCsUWmL0-62" style="edgeStyle=orthogonalEdgeStyle;rounded=0;orthogonalLoop=1;jettySize=auto;html=1;exitX=1;exitY=0.5;exitDx=0;exitDy=0;entryX=0;entryY=0.5;entryDx=0;entryDy=0;fillColor=#f8cecc;strokeColor=#b85450;endArrow=none;endFill=0;" edge="1" parent="1" source="v77sr_TwMKpnWCsUWmL0-46" target="v77sr_TwMKpnWCsUWmL0-13">
          <mxGeometry relative="1" as="geometry" />
        </mxCell>
        <mxCell id="v77sr_TwMKpnWCsUWmL0-46" value="&lt;font style=&quot;font-size: 11px;&quot;&gt;No&lt;/font&gt;" style="ellipse;whiteSpace=wrap;html=1;fillColor=#f8cecc;strokeColor=#b85450;" vertex="1" parent="1">
          <mxGeometry x="420" y="360" width="40" height="40" as="geometry" />
        </mxCell>
        <mxCell id="v77sr_TwMKpnWCsUWmL0-47" value="&lt;font style=&quot;font-size: 11px;&quot;&gt;No&lt;/font&gt;" style="ellipse;whiteSpace=wrap;html=1;fillColor=#f8cecc;strokeColor=#b85450;" vertex="1" parent="1">
          <mxGeometry x="300" y="250" width="40" height="40" as="geometry" />
        </mxCell>
        <mxCell id="v77sr_TwMKpnWCsUWmL0-66" style="edgeStyle=orthogonalEdgeStyle;rounded=0;orthogonalLoop=1;jettySize=auto;html=1;exitX=0.5;exitY=1;exitDx=0;exitDy=0;entryX=0.417;entryY=-0.033;entryDx=0;entryDy=0;entryPerimeter=0;endArrow=none;endFill=0;fillColor=#f8cecc;strokeColor=#b85450;" edge="1" parent="1" source="v77sr_TwMKpnWCsUWmL0-44" target="v77sr_TwMKpnWCsUWmL0-6">
          <mxGeometry relative="1" as="geometry" />
        </mxCell>
        <mxCell id="v77sr_TwMKpnWCsUWmL0-69" value="" style="edgeStyle=none;orthogonalLoop=1;jettySize=auto;html=1;rounded=0;startArrow=classic;startFill=1;" edge="1" parent="1">
          <mxGeometry width="80" relative="1" as="geometry">
            <mxPoint x="700" y="440" as="sourcePoint" />
            <mxPoint x="700" y="80" as="targetPoint" />
            <Array as="points" />
          </mxGeometry>
        </mxCell>
        <mxCell id="v77sr_TwMKpnWCsUWmL0-70" value="More precise" style="text;strokeColor=none;align=center;fillColor=none;html=1;verticalAlign=middle;whiteSpace=wrap;rounded=0;" vertex="1" parent="1">
          <mxGeometry x="670" y="40" width="60" height="30" as="geometry" />
        </mxCell>
        <mxCell id="v77sr_TwMKpnWCsUWmL0-72" value="Less precise" style="text;strokeColor=none;align=center;fillColor=none;html=1;verticalAlign=middle;whiteSpace=wrap;rounded=0;" vertex="1" parent="1">
          <mxGeometry x="670" y="450" width="60" height="30" as="geometry" />
        </mxCell>
      </root>
    </mxGraphModel>
  </diagram>
</mxfile>
